<svg width="22" height="22" viewBox="0 0 22 22" fill="none" xmlns="http://www.w3.org/2000/svg">
    <path
        d="M1.5286 12.564C1.35676 11.5281 1.35709 10.471 1.52956 9.43529C2.58622 9.46025 3.53731 8.95352 3.9068 8.06194C4.2763 7.1694 3.96246 6.13962 3.1966 5.41023C3.80739 4.55539 4.55516 3.8073 5.40973 3.19615C6.13913 3.96201 7.16987 4.27584 8.06146 3.90635C8.95401 3.53685 9.46074 2.58577 9.43483 1.52912C10.4709 1.35687 11.5284 1.35687 12.5645 1.52912C12.5386 2.58673 13.0463 3.53685 13.9379 3.90635C14.8304 4.27584 15.8602 3.96201 16.5896 3.19615C17.4445 3.80689 18.1926 4.55467 18.8037 5.40927C18.0378 6.13866 17.724 7.1694 18.0935 8.06194C18.463 8.95448 19.4131 9.46121 20.4707 9.43433C20.643 10.4708 20.643 11.5285 20.4707 12.5649C19.4131 12.539 18.463 13.0458 18.0935 13.9373C17.724 14.8299 18.0378 15.8606 18.8037 16.59C18.1929 17.4445 17.4451 18.1923 16.5906 18.8031C15.8612 18.0373 14.8304 17.7234 13.9379 18.0929C13.0453 18.4624 12.5386 19.4135 12.5655 20.4711C11.529 20.6432 10.4712 20.6429 9.43483 20.4702C9.46074 19.4135 8.95305 18.4624 8.06242 18.0929C7.16987 17.7234 6.13913 18.0373 5.40973 18.8031C4.55525 18.1922 3.80748 17.4445 3.1966 16.59C3.96246 15.8606 4.2763 14.8299 3.9068 13.9383C3.53731 13.0458 2.58622 12.5381 1.5286 12.564ZM11.0001 13.8788C11.7638 13.8788 12.4961 13.5755 13.036 13.0355C13.576 12.4956 13.8793 11.7632 13.8793 10.9996C13.8793 10.236 13.576 9.50371 13.036 8.96376C12.4961 8.42382 11.7638 8.12048 11.0001 8.12048C10.2365 8.12048 9.50421 8.42382 8.96426 8.96376C8.4243 9.50371 8.12096 10.236 8.12096 10.9996C8.12096 11.7632 8.4243 12.4956 8.96426 13.0355C9.50421 13.5755 10.2365 13.8788 11.0001 13.8788Z"
        stroke="#F9C700" stroke-width="2" />
</svg>